<svg xmlns="http://www.w3.org/2000/svg" viewBox="0 0 100 100" width="100" height="100">
  <!-- Heart shape background -->
  <path d="M50 90C50 90 15 65 15 35C15 20 25 10 40 10C45 10 50 12 55 15C60 12 65 10 70 10C85 10 95 20 95 35C95 65 50 90 50 90Z" 
        fill="#1E3A5F" stroke="#D4AF37" stroke-width="2" />
  
  <!-- Infinity symbol inside heart -->
  <path d="M30 45C30 38 36 32 43 32C50 32 54 38 50 45C46 52 39 52 35 45C31 38 35 32 43 32" 
        fill="none" stroke="#D4AF37" stroke-width="4" stroke-linecap="round" />
  <path d="M70 45C70 38 64 32 57 32C50 32 46 38 50 45C54 52 61 52 65 45C69 38 65 32 57 32" 
        fill="none" stroke="#D4AF37" stroke-width="4" stroke-linecap="round" />
</svg> 